name C:\Users\antoi\Documents\MyRepositories\upper-imu-dc\Results\main_tracking\Case_101\kinematics.mot
datacolumns 43
datarows 12
range 2.08000000 2.30000000
endheader 
time	clav_prot	clav_elev	scapula_abduction	scapula_elevation	scapula_upward_rot	scapula_winging	plane_elv	shoulder_elv	axial_rot	TrapeziusScapula_M/activation	TrapeziusScapula_S/activation	TrapeziusScapula_I/activation	TrapeziusClavicle_S/activation	SerratusAnterior_I/activation	SerratusAnterior_M/activation	SerratusAnterior_S/activation	Rhomboideus_S/activation	Rhomboideus_I/activation	LevatorScapulae/activation	Coracobrachialis/activation	DeltoideusClavicle_A/activation	DeltoideusScapula_P/activation	DeltoideusScapula_M/activation	LatissimusDorsi_S/activation	LatissimusDorsi_M/activation	LatissimusDorsi_I/activation	PectoralisMajorClavicle_S/activation	PectoralisMajorThorax_I/activation	PectoralisMajorThorax_M/activation	TeresMajor/activation	Infraspinatus_I/activation	Infraspinatus_S/activation	PectoralisMinor/activation	TeresMinor/activation	Subscapularis_S/activation	Subscapularis_M/activation	Subscapularis_I/activation	Supraspinatus_P/activation	Supraspinatus_A/activation	TRIlong/activation	BIC_long/activation	BIC_brevis/activation	
          2.08000000	        -24.22122377	         -2.18542538	          3.80256155	         -8.07735015	         41.30024798	         -1.42111380	         64.59762688	         83.79855387	        -13.23407248	          0.18494686	          0.25184478	          0.13797928	          0.24210486	          0.26501179	          0.40078620	          0.21613099	          0.20048558	          0.17449808	          0.22845924	          0.20176451	          0.20868134	          0.23750665	          0.18122181	          0.12417555	          0.09123747	          0.10735782	          0.19808779	          0.08150104	          0.12489058	          0.17750772	          0.31908666	          0.19275429	          0.10720085	          0.29897564	          0.15914935	          0.16657112	          0.14167547	          0.17956466	          0.18120680	          0.21826191	          0.16004084	          0.18239736	
          2.10000000	        -24.70184688	         -2.01411388	          3.73405507	         -8.10330151	         42.32975501	         -1.64992668	         64.36121650	         84.20691800	        -13.21926624	          0.18438374	          0.25149147	          0.13809611	          0.24209127	          0.26395724	          0.40303203	          0.21723775	          0.19979395	          0.17423098	          0.22727778	          0.20022978	          0.20700206	          0.24018106	          0.17967013	          0.12366017	          0.09075769	          0.10669871	          0.19712584	          0.08113346	          0.12465124	          0.17871494	          0.31857228	          0.19277692	          0.10670906	          0.29914300	          0.15914183	          0.16649419	          0.14214689	          0.17930992	          0.18108871	          0.22043036	          0.16046885	          0.17992557	
          2.12000000	        -25.19225733	         -1.84856301	          3.65790880	         -8.12913429	         43.36390035	         -1.87811917	         64.12264168	         84.59256816	        -13.22454519	          0.18375720	          0.25101178	          0.13826691	          0.24208960	          0.26298344	          0.40556043	          0.21834274	          0.19899760	          0.17392032	          0.22587229	          0.19854911	          0.20539514	          0.24297435	          0.17828125	          0.12318646	          0.09039244	          0.10611728	          0.19619968	          0.08080382	          0.12453489	          0.17989949	          0.31815493	          0.19296865	          0.10635930	          0.29930391	          0.15908881	          0.16637714	          0.14256009	          0.17906061	          0.18093983	          0.22253910	          0.16092273	          0.17738754	
          2.14000000	        -25.69077972	         -1.68888384	          3.57604566	         -8.15459556	         44.40158218	         -2.10557443	         63.88094112	         84.95808545	        -13.24822970	          0.18311284	          0.25054880	          0.13847271	          0.24212080	          0.26205174	          0.40829934	          0.21939425	          0.19813042	          0.17356939	          0.22429755	          0.19669168	          0.20379091	          0.24593005	          0.17704797	          0.12271672	          0.09007364	          0.10556721	          0.19525913	          0.08048640	          0.12445314	          0.18110155	          0.31775144	          0.19335153	          0.10610006	          0.29940242	          0.15900296	          0.16623025	          0.14294046	          0.17881667	          0.18075817	          0.22464423	          0.16142691	          0.17472731	
          2.16000000	        -26.19637253	         -1.53442565	          3.48964078	         -8.17901558	         45.44239207	         -2.33256657	         63.63456793	         85.30542948	        -13.28540845	          0.18249056	          0.25017592	          0.13869957	          0.24218683	          0.26108936	          0.41120500	          0.22036802	          0.19722026	          0.17319155	          0.22259846	          0.19464972	          0.20214790	          0.24906568	          0.17594508	          0.12222838	          0.08975027	          0.10500858	          0.19428075	          0.08015384	          0.12434876	          0.18235098	          0.31728793	          0.19393034	          0.10587057	          0.29938839	          0.15890551	          0.16607265	          0.14332251	          0.17858268	          0.18054786	          0.22677766	          0.16200095	          0.17194094	
          2.18000000	        -26.70845065	         -1.38406882	          3.39919852	         -8.20145729	         46.48622441	         -2.55960419	         63.38133957	         85.63611692	        -13.32912328	          0.18190961	          0.24991103	          0.13893825	          0.24228573	          0.26003188	          0.41425582	          0.22125926	          0.19628836	          0.17280982	          0.22081173	          0.19242752	          0.20044955	          0.25238121	          0.17494392	          0.12171398	          0.08939498	          0.10442238	          0.19326123	          0.07979396	          0.12420354	          0.18366699	          0.31670474	          0.19470081	          0.10563897	          0.29922539	          0.15881766	          0.16592353	          0.14374031	          0.17836406	          0.18031500	          0.22895747	          0.16265847	          0.16904721	
          2.20000000	        -27.22663256	         -1.23658956	          3.30471822	         -8.22091735	         47.53282413	         -2.78722596	         63.11850312	         85.95147425	        -13.37191856	          0.18136664	          0.24971893	          0.13918372	          0.24240913	          0.25883471	          0.41743453	          0.22207958	          0.19534865	          0.17244217	          0.21896864	          0.19005412	          0.19870881	          0.25584381	          0.17400823	          0.12117708	          0.08899977	          0.10380797	          0.19222250	          0.07941456	          0.12403690	          0.18505540	          0.31595360	          0.19564067	          0.10540527	          0.29888843	          0.15875750	          0.16579959	          0.14422096	          0.17816690	          0.18006843	          0.23118803	          0.16340296	          0.16609456	
          2.22000000	        -27.75050758	         -1.09097002	          3.20586719	         -8.23650815	         48.58141346	         -3.01582248	         62.84301754	         86.25281558	        -13.40717124	          0.18084041	          0.24952515	          0.13943006	          0.24254394	          0.25747167	          0.42072283	          0.22285251	          0.19441062	          0.17209910	          0.21709802	          0.18758456	          0.19696277	          0.25938321	          0.17309218	          0.12062673	          0.08856842	          0.10317606	          0.19120857	          0.07904084	          0.12389576	          0.18651033	          0.31499181	          0.19670731	          0.10519149	          0.29835922	          0.15874077	          0.16571592	          0.14478416	          0.17799835	          0.17982033	          0.23346067	          0.16422777	          0.16315947	
          2.24000000	        -28.27946277	         -0.94658776	          3.10213549	         -8.24757909	         49.63046560	         -3.24552416	         62.55201903	         86.54148239	        -13.42988150	          0.18030464	          0.24924296	          0.13967488	          0.24267442	          0.25593128	          0.42408536	          0.22360209	          0.19348181	          0.17178552	          0.21522434	          0.18507515	          0.19524701	          0.26292687	          0.17215197	          0.12007807	          0.08811580	          0.10254681	          0.19026191	          0.07870809	          0.12383414	          0.18802390	          0.31378054	          0.19785399	          0.10503176	          0.29762364	          0.15878101	          0.16568626	          0.14544638	          0.17786382	          0.17958151	          0.23576593	          0.16512248	          0.16031361	
          2.26000000	        -28.81263926	         -0.80331761	          2.99286632	         -8.25380050	         50.67762844	         -3.47615194	         62.24333291	         86.81876193	        -13.43685757	          0.17974553	          0.24880608	          0.13993147	          0.24278242	          0.25421216	          0.42744028	          0.22433658	          0.19256977	          0.17150385	          0.21336346	          0.18255182	          0.19356490	          0.26645143	          0.17115883	          0.11955763	          0.08767359	          0.10195264	          0.18939325	          0.07845430	          0.12389014	          0.18959877	          0.31228447	          0.19905239	          0.10496538	          0.29667061	          0.15888887	          0.16572269	          0.14622675	          0.17776304	          0.17935490	          0.23811199	          0.16608119	          0.15758474	
          2.28000000	        -29.34904215	         -0.66157378	          2.87710265	         -8.25522454	         51.71976327	         -3.70722746	         61.91584889	         87.08572362	        -13.42640706	          0.17916905	          0.24818754	          0.14022859	          0.24284931	          0.25231689	          0.43065033	          0.22504564	          0.19168554	          0.17125914	          0.21152833	          0.18001035	          0.19188555	          0.26998620	          0.17009495	          0.11910146	          0.08728783	          0.10143538	          0.18857881	          0.07831513	          0.12407881	          0.19124973	          0.31047121	          0.20029389	          0.10503029	          0.29549247	          0.15907228	          0.16583587	          0.14714808	          0.17768974	          0.17913496	          0.24052805	          0.16710264	          0.15495939	
          2.30000000	        -29.88769382	         -0.52226355	          2.75339258	         -8.25228813	         52.75304366	         -3.93804381	         61.56964555	         87.34302514	        -13.39785248	          0.17859364	          0.24739893	          0.14059675	          0.24286153	          0.25025465	          0.43356466	          0.22571156	          0.19084383	          0.17105873	          0.20973611	          0.17745483	          0.19018242	          0.27355072	          0.16894755	          0.11874270	          0.08700204	          0.10103228	          0.18779374	          0.07831896	          0.12440562	          0.19298644	          0.30831891	          0.20156639	          0.10525514	          0.29408747	          0.15933674	          0.16603444	          0.14822794	          0.17763755	          0.17891627	          0.24303573	          0.16818154	          0.15243117	
